<svg width="40" height="40" viewBox="0 0 40 40" fill="none" xmlns="http://www.w3.org/2000/svg">
<rect width="40" height="40" rx="20" fill="#F8F8F8"/>
<path d="M29.0749 22.1751L17.8249 10.9251C15.9499 8.97514 12.8749 8.97514 10.9249 10.8501C8.9749 12.7251 8.9749 15.8751 10.9249 17.7501L10.9999 17.8251L13.0999 20.0001L14.1499 18.9501L11.9749 16.7751C10.6999 15.5001 10.6999 13.3251 11.9749 12.0501C13.2499 10.7751 15.4249 10.7001 16.6999 11.9751L16.7749 12.0501L27.9499 23.2251C29.2999 24.5001 29.2999 26.6751 28.0249 27.9501C26.7499 29.3001 24.5749 29.3001 23.2999 28.0251L23.2249 27.9501L17.6749 22.4001C16.9249 21.6501 16.9999 20.4501 17.6749 19.7751C18.4249 19.1001 19.5499 19.1001 20.2999 19.7751L23.3749 22.8501L24.4249 21.8001L21.2749 18.6501C19.9249 17.3751 17.8249 17.4501 16.5499 18.8001C15.3499 20.0751 15.3499 22.1001 16.5499 23.4501L22.1749 29.0751C24.0499 31.0251 27.1249 31.0251 29.0749 29.1501C31.0249 27.2751 31.0249 24.1251 29.0749 22.1751Z" fill="#1A1A1A"/>
</svg>
