<svg width="73" height="21" viewBox="0 0 73 21" fill="none" xmlns="http://www.w3.org/2000/svg">
<path d="M24.4025 11.21C24.4025 11.0269 24.4585 10.8896 24.5704 10.798C24.6924 10.6963 24.8399 10.6454 25.0128 10.6454H25.4401C26.142 10.6454 26.6963 10.4674 27.1032 10.1114C27.5203 9.75538 27.7288 9.25185 27.7288 8.60083C27.7288 8.33636 27.6881 8.09222 27.6068 7.86843C27.5355 7.64465 27.4389 7.4412 27.3168 7.2581C27.205 7.075 27.0727 6.92242 26.9201 6.80036C26.7675 6.66812 26.615 6.56131 26.4624 6.47993H23.8837C23.721 6.47993 23.5887 6.43416 23.487 6.34261C23.3853 6.25106 23.3344 6.12899 23.3344 5.97641C23.3344 5.82383 23.3853 5.70176 23.487 5.61021C23.5786 5.51866 23.7108 5.47288 23.8837 5.47288H34.9307C35.0935 5.47288 35.2206 5.51866 35.3122 5.61021C35.4139 5.69159 35.4648 5.81365 35.4648 5.97641C35.4648 6.12899 35.4139 6.25106 35.3122 6.34261C35.2206 6.43416 35.0935 6.47993 34.9307 6.47993H33.4049V15.3145C33.4049 15.5281 33.354 15.7061 33.2523 15.8485C33.1506 15.9808 32.998 16.0469 32.7946 16.0469C32.5606 16.0469 32.3979 15.9757 32.3063 15.8333C32.2148 15.6908 32.169 15.5179 32.169 15.3145V11.4541H29.1631C28.5121 11.4541 27.9882 11.3626 27.5915 11.1795C27.4084 11.2812 27.2151 11.3626 27.0117 11.4236C26.8082 11.4846 26.5946 11.5355 26.3708 11.5762C26.7065 12.1255 27.0778 12.6799 27.4847 13.2393C27.8916 13.7886 28.3442 14.3278 28.8427 14.8567C29.0054 15.0297 29.1173 15.1721 29.1784 15.284C29.2394 15.3857 29.2699 15.4925 29.2699 15.6044C29.2699 15.757 29.214 15.8841 29.1021 15.9858C28.9902 16.0876 28.8528 16.1384 28.6901 16.1384C28.5375 16.1384 28.3951 16.0977 28.2629 16.0164C28.1408 15.935 28.0035 15.8078 27.8509 15.6349C27.4745 15.2077 27.0575 14.6482 26.5997 13.9565C26.1521 13.2546 25.7351 12.5222 25.3485 11.7593H25.0128C24.8399 11.7593 24.6924 11.7135 24.5704 11.622C24.4585 11.5202 24.4025 11.3829 24.4025 11.21ZM29.041 8.67712C29.041 9.03315 28.9902 9.35866 28.8884 9.65365C28.7867 9.94865 28.6443 10.208 28.4612 10.4318H32.169V6.47993H28.034C28.1561 6.57148 28.273 6.69355 28.3849 6.84613C28.507 6.98854 28.6138 7.15638 28.7054 7.34965C28.8071 7.53275 28.8884 7.74128 28.9495 7.97524C29.0105 8.19903 29.041 8.43299 29.041 8.67712ZM35.2644 11.21C35.2644 11.0269 35.3203 10.8896 35.4322 10.798C35.5543 10.6963 35.7018 10.6454 35.8747 10.6454H36.7597C37.4616 10.6454 38.021 10.4674 38.4381 10.1114C38.8552 9.75538 39.0637 9.25185 39.0637 8.60083C39.0637 8.33636 39.023 8.09222 38.9416 7.86843C38.8704 7.64465 38.7738 7.4412 38.6517 7.2581C38.5398 7.075 38.4076 6.92242 38.255 6.80036C38.1024 6.66812 37.9498 6.56131 37.7973 6.47993H34.7761C34.6134 6.47993 34.4811 6.43416 34.3794 6.34261C34.2777 6.25106 34.2268 6.12899 34.2268 5.97641C34.2268 5.82383 34.2777 5.70176 34.3794 5.61021C34.4811 5.51866 34.6134 5.47288 34.7761 5.47288H41.5661C41.7288 5.47288 41.861 5.51866 41.9628 5.61021C42.0645 5.69159 42.1153 5.81365 42.1153 5.97641C42.1153 6.12899 42.0645 6.25106 41.9628 6.34261C41.861 6.43416 41.7288 6.47993 41.5661 6.47993H39.3689C39.613 6.66303 39.8419 6.95294 40.0555 7.34965C40.2691 7.7362 40.3759 8.17869 40.3759 8.67712C40.3759 9.14504 40.2894 9.55702 40.1165 9.91304C39.9538 10.2589 39.73 10.5539 39.4452 10.798C39.1705 11.0422 38.845 11.2354 38.4686 11.3778C38.0923 11.5101 37.6955 11.5915 37.2785 11.622C37.5938 12.1611 37.9498 12.7053 38.3466 13.2546C38.7433 13.8039 39.201 14.3379 39.7198 14.8567C39.8826 15.0195 39.9944 15.1568 40.0555 15.2687C40.1267 15.3806 40.1623 15.4925 40.1623 15.6044C40.1623 15.757 40.1063 15.8841 39.9944 15.9858C39.8826 16.0876 39.7401 16.1384 39.5672 16.1384C39.4146 16.1384 39.2773 16.0977 39.1552 16.0164C39.0332 15.935 38.8908 15.8078 38.728 15.6349C38.3516 15.2077 37.9346 14.6482 37.4768 13.9565C37.0293 13.2546 36.6173 12.5222 36.2409 11.7593H35.8747C35.7018 11.7593 35.5543 11.7135 35.4322 11.622C35.3203 11.5202 35.2644 11.3829 35.2644 11.21ZM51.4064 15.3145C51.4064 15.5281 51.3556 15.7061 51.2539 15.8485C51.1521 15.9808 50.9996 16.0469 50.7961 16.0469C50.5622 16.0469 50.3943 15.9757 50.2926 15.8333C50.201 15.6908 50.1553 15.5179 50.1553 15.3145V9.89779H49.3771C48.9295 9.89779 48.5481 10.0351 48.2327 10.3098C47.9276 10.5742 47.775 11.032 47.775 11.683V12.3239C47.775 12.5375 47.7241 12.7155 47.6224 12.8579C47.5308 13.0003 47.3732 13.0715 47.1494 13.0715C46.9459 13.0715 46.7934 13.0003 46.6916 12.8579C46.5899 12.7155 46.5391 12.5375 46.5391 12.3239V11.5304C46.5391 10.9811 46.3916 10.5641 46.0966 10.2792C45.8117 9.98425 45.4455 9.83675 44.998 9.83675C44.8047 9.83675 44.6063 9.87744 44.4029 9.95882C44.2096 10.03 44.0316 10.1521 43.8689 10.325C43.7163 10.4878 43.5891 10.7065 43.4874 10.9811C43.3857 11.2558 43.3348 11.5965 43.3348 12.0034C43.3348 12.5222 43.406 12.9647 43.5484 13.3309C43.701 13.6869 43.8994 13.9819 44.1435 14.2159C44.3978 14.4397 44.6826 14.6075 44.998 14.7194C45.3235 14.8313 45.6592 14.8974 46.005 14.9178C46.1881 14.9381 46.3305 14.9991 46.4322 15.1009C46.534 15.1924 46.5848 15.3145 46.5848 15.4671C46.5848 15.8231 46.361 16.0011 45.9135 16.0011C45.4557 16.0011 44.998 15.9299 44.5402 15.7875C44.0825 15.6349 43.6654 15.4009 43.289 15.0856C42.9127 14.7703 42.6075 14.3634 42.3735 13.8649C42.1396 13.3563 42.0226 12.7409 42.0226 12.0187C42.0226 11.449 42.104 10.9608 42.2667 10.5539C42.4397 10.1368 42.6635 9.80115 42.9381 9.54685C43.2128 9.28237 43.5281 9.0891 43.8841 8.96703C44.2401 8.84496 44.6063 8.78393 44.9827 8.78393C45.532 8.78393 45.9948 8.906 46.3712 9.15013C46.7476 9.38409 47.0222 9.66891 47.1952 10.0046C47.3783 9.63839 47.6478 9.35357 48.0039 9.15013C48.3701 8.94669 48.838 8.84496 49.4076 8.84496H50.1553V6.47993H41.1834C41.0206 6.47993 40.8884 6.43416 40.7867 6.34261C40.685 6.25106 40.6341 6.12899 40.6341 5.97641C40.6341 5.82383 40.685 5.70176 40.7867 5.61021C40.8884 5.51866 41.0206 5.47288 41.1834 5.47288H52.917C53.0798 5.47288 53.212 5.51866 53.3137 5.61021C53.4155 5.69159 53.4663 5.81365 53.4663 5.97641C53.4663 6.12899 53.4155 6.25106 53.3137 6.34261C53.212 6.43416 53.0798 6.47993 52.917 6.47993H51.4064V15.3145ZM61.6568 5.47288C61.8195 5.47288 61.9518 5.51866 62.0535 5.61021C62.1552 5.69159 62.2061 5.81365 62.2061 5.97641C62.2061 6.12899 62.1552 6.25106 62.0535 6.34261C61.9518 6.43416 61.8195 6.47993 61.6568 6.47993H60.131V15.3145C60.131 15.5281 60.0801 15.7061 59.9784 15.8485C59.8767 15.9808 59.7241 16.0469 59.5206 16.0469C59.2968 16.0469 59.1341 15.9757 59.0324 15.8333C58.9408 15.6908 58.895 15.5179 58.895 15.3145V12.0797C58.6916 12.3137 58.4068 12.507 58.0406 12.6595C57.6744 12.8019 57.2472 12.8732 56.7589 12.8732C56.3622 12.8732 55.9858 12.8121 55.6298 12.6901C55.2839 12.5578 54.9788 12.3696 54.7143 12.1255C54.46 11.8712 54.2565 11.5609 54.1039 11.1947C53.9615 10.8184 53.8903 10.3861 53.8903 9.89779V6.47993H52.6086C52.4459 6.47993 52.3136 6.43416 52.2119 6.34261C52.1102 6.25106 52.0593 6.12899 52.0593 5.97641C52.0593 5.82383 52.1102 5.70176 52.2119 5.61021C52.3136 5.51866 52.4459 5.47288 52.6086 5.47288H61.6568ZM56.9572 11.8051C57.1912 11.8051 57.4201 11.7746 57.6439 11.7135C57.8778 11.6525 58.0813 11.5609 58.2542 11.4389C58.4373 11.3168 58.5848 11.1642 58.6967 10.9811C58.8086 10.7879 58.8747 10.5641 58.895 10.3098V6.47993H55.1415V9.82149C55.1415 10.4725 55.3043 10.9659 55.6298 11.3015C55.9655 11.6372 56.4079 11.8051 56.9572 11.8051ZM70.434 15.3145C70.434 15.5281 70.3831 15.7061 70.2814 15.8485C70.1797 15.9808 70.0271 16.0469 69.8237 16.0469C69.5999 16.0469 69.4371 15.9757 69.3354 15.8333C69.2439 15.6908 69.1981 15.5179 69.1981 15.3145V12.7969C68.9133 13.1427 68.5318 13.4224 68.0537 13.6361C67.5858 13.8395 67.0467 13.9412 66.4363 13.9412C65.7344 13.9412 65.1292 13.8293 64.6206 13.6055C64.1222 13.3818 63.7102 13.1071 63.3847 12.7816C63.0693 12.4459 62.8354 12.0848 62.6828 11.6983C62.5302 11.3117 62.4539 10.9557 62.4539 10.6302V10.5234C62.4539 10.3098 62.515 10.147 62.637 10.0351C62.7591 9.91304 62.9066 9.85201 63.0795 9.85201H63.4304C64.3968 9.85201 65.1139 9.674 65.5819 9.31797C66.06 8.96194 66.299 8.44825 66.299 7.77689C66.299 7.2581 66.1871 6.87665 65.9633 6.63251C65.7395 6.38838 65.4496 6.26632 65.0936 6.26632C64.7376 6.26632 64.4426 6.3833 64.2086 6.61726C63.9747 6.84104 63.8577 7.20724 63.8577 7.71585V7.92947C63.8577 8.12274 63.8017 8.27532 63.6898 8.38722C63.5779 8.48894 63.4406 8.5398 63.2779 8.5398C63.1151 8.5398 62.9676 8.48894 62.8354 8.38722C62.7133 8.27532 62.6523 8.09222 62.6523 7.83792V7.71585C62.6523 7.30896 62.7133 6.95294 62.8354 6.64777C62.9574 6.34261 63.1304 6.0883 63.3542 5.88486C63.5779 5.67124 63.8373 5.51357 64.1323 5.41185C64.4273 5.31013 64.7528 5.25927 65.1089 5.25927C65.4344 5.25927 65.7395 5.31522 66.0244 5.42711C66.3194 5.52883 66.5787 5.6865 66.8025 5.90012C67.0263 6.11373 67.1992 6.37821 67.3213 6.69355C67.4535 6.99871 67.5197 7.35474 67.5197 7.76163C67.5197 8.28041 67.423 8.73307 67.2298 9.11961C67.0365 9.49598 66.7669 9.80624 66.4211 10.0504C66.0854 10.2945 65.6836 10.4776 65.2157 10.5997C64.7477 10.7217 64.2391 10.7828 63.6898 10.7828C63.8323 11.4236 64.1628 11.9322 64.6816 12.3086C65.2004 12.6748 65.8209 12.8579 66.5431 12.8579C67.2043 12.8579 67.7587 12.7104 68.2063 12.4154C68.664 12.1102 68.9946 11.7288 69.1981 11.271V6.03744C69.1981 5.86451 69.2439 5.72719 69.3354 5.62547C69.4371 5.52375 69.5744 5.47288 69.7474 5.47288H71.9598C72.1226 5.47288 72.2548 5.51866 72.3565 5.61021C72.4583 5.69159 72.5091 5.81365 72.5091 5.97641C72.5091 6.12899 72.4583 6.25106 72.3565 6.34261C72.2548 6.43416 72.1226 6.47993 71.9598 6.47993H70.434V15.3145Z" fill="#291D89"/>
<circle cx="8.58278" cy="10.1539" r="8.58278" fill="#4E67EB"/>
<path d="M8.34438 19.2136C3.41933 13.464 3.54551 9.33352 8.34438 1.33276C6.91392 9.43872 12.6358 14.2069 18.3576 10.154" stroke="white" stroke-width="1.43046"/>
<path d="M13.8276 18.7368C10.2515 16.8295 6.19848 13.7301 7.15213 8.48511C7.39054 11.8229 10.7276 16.0873 15.7349 16.1142L14.3044 17.3063L13.8276 18.7368Z" fill="white"/>
</svg>
