<svg width="76" height="76" viewBox="0 0 76 76" fill="none" xmlns="http://www.w3.org/2000/svg">
<path d="M54.625 33.25V40.375C54.625 44.7842 52.8734 49.0129 49.7556 52.1306C46.6379 55.2484 42.4092 57 38 57C33.5908 57 29.3621 55.2484 26.2444 52.1306C23.1266 49.0129 21.375 44.7842 21.375 40.375V33.25H16.625V40.375C16.6275 45.631 18.5665 50.7019 22.0714 54.6186C25.5763 58.5354 30.4015 61.0235 35.625 61.6075V66.5H26.125V71.25H49.875V66.5H40.375V61.6075C45.5985 61.0235 50.4237 58.5354 53.9286 54.6186C57.4335 50.7019 59.3725 45.631 59.375 40.375V33.25H54.625Z" fill="#4E67EB"/>
<path d="M38 52.25C41.1494 52.25 44.1699 50.9989 46.3969 48.7719C48.6239 46.5449 49.875 43.5244 49.875 40.375V16.625C49.875 13.4756 48.6239 10.4551 46.3969 8.22811C44.1699 6.00111 41.1494 4.75 38 4.75C34.8506 4.75 31.8301 6.00111 29.6031 8.22811C27.3761 10.4551 26.125 13.4756 26.125 16.625V40.375C26.125 43.5244 27.3761 46.5449 29.6031 48.7719C31.8301 50.9989 34.8506 52.25 38 52.25ZM30.875 16.625C30.875 14.7353 31.6257 12.9231 32.9619 11.5869C34.2981 10.2507 36.1103 9.5 38 9.5C39.8897 9.5 41.7019 10.2507 43.0381 11.5869C44.3743 12.9231 45.125 14.7353 45.125 16.625V40.375C45.125 42.2647 44.3743 44.0769 43.0381 45.4131C41.7019 46.7493 39.8897 47.5 38 47.5C36.1103 47.5 34.2981 46.7493 32.9619 45.4131C31.6257 44.0769 30.875 42.2647 30.875 40.375V16.625Z" fill="#4E67EB"/>
</svg>
