<svg width="40" height="40" viewBox="0 0 40 40" fill="none" xmlns="http://www.w3.org/2000/svg">
<path d="M28.5875 19.3326L12.0875 11.0826C11.9582 11.018 11.813 10.992 11.6692 11.008C11.5255 11.024 11.3895 11.0811 11.2775 11.1726C11.1706 11.2622 11.0908 11.3799 11.0471 11.5124C11.0033 11.6449 10.9974 11.787 11.03 11.9226L13.0175 19.2501H21.5V20.7501H13.0175L11 28.0551C10.9695 28.1684 10.9659 28.2873 10.9896 28.4022C11.0133 28.5172 11.0637 28.6249 11.1367 28.7168C11.2096 28.8087 11.3031 28.8823 11.4096 28.9315C11.5162 28.9807 11.6328 29.0042 11.75 29.0001C11.8674 28.9994 11.983 28.9712 12.0875 28.9176L28.5875 20.6676C28.7104 20.6047 28.8135 20.5091 28.8855 20.3913C28.9575 20.2735 28.9956 20.1382 28.9956 20.0001C28.9956 19.8621 28.9575 19.7267 28.8855 19.609C28.8135 19.4912 28.7104 19.3956 28.5875 19.3326Z" fill="#202020"/>
</svg>
